<svg id="Group_163" data-name="Group 163" 
  xmlns="http://www.w3.org/2000/svg" 
  xmlns:xlink="http://www.w3.org/1999/xlink" width="131.597" height="129.247" viewBox="0 0 131.597 129.247">
  <defs>
    <style>
      .cls-1 {
        fill: #2ba5ff;
      }

      .cls-2 {
        clip-path: url(#clip-path);
      }
    </style>
    <clipPath id="clip-path">
      <path id="Path_84" data-name="Path 84" class="cls-1" d="M0,65.911H131.6V-63.336H0Z" transform="translate(0 63.336)"/>
    </clipPath>
  </defs>
  <g id="Group_162" data-name="Group 162" class="cls-2" transform="translate(0 0)">
    <g id="Group_151" data-name="Group 151" transform="translate(29.985 81.239)">
      <path id="Path_73" data-name="Path 73" class="cls-1" d="M17.822,9.271C5.493,8.624-4.8,11-17.126,10.355-10.535,5.418-3.209-3.389,4.062-8.909c5.23,7.705,9,13.862,13.76,18.18" transform="translate(17.126 8.909)"/>
    </g>
    <g id="Group_152" data-name="Group 152" transform="translate(15.385 55.347)">
      <path id="Path_74" data-name="Path 74" class="cls-1" d="M40.594,20.17C-2.1,54.228,1.372-16.511-39.008-17.7c6.608-4.859,115.521-1.141,79.6,37.872" transform="translate(39.008 19.382)"/>
    </g>
    <g id="Group_153" data-name="Group 153" transform="translate(26.464 104.656)">
      <path id="Path_75" data-name="Path 75" class="cls-1" d="M28.468,12.19a1.376,1.376,0,0,1-1.247.684,1.338,1.338,0,0,1-.675-.229,25.938,25.938,0,0,0-7.785-3.318c-2.634-.612-9.077.071-17.235,1.828l-.188.039c-.757.149-1.63.322-28.694-22.908l4.755.249C-12.553-2.894-1.028,6.774,1.233,8.2,6.36,7.1,15.281,5.483,19.371,6.433a28.21,28.21,0,0,1,8.685,3.714,1.532,1.532,0,0,1,.412,2.043" transform="translate(27.356 11.714)"/>
    </g>
    <g id="Group_154" data-name="Group 154" transform="translate(37.067 118.61)">
      <path id="Path_76" data-name="Path 76" class="cls-1" d="M2.685,2.163A7.511,7.511,0,0,0,8.093.082a1.273,1.273,0,0,0-.027-1.8,1.272,1.272,0,0,0-1.8.02A4.991,4.991,0,0,1,2.818-.381,13.388,13.388,0,0,1-.849-.991a1.278,1.278,0,0,0-1.645.731,1.269,1.269,0,0,0,.72,1.643,15.327,15.327,0,0,0,4.459.782" transform="translate(2.58 2.079)"/>
    </g>
    <g id="Group_155" data-name="Group 155" transform="translate(58.419 124.132)">
      <path id="Path_77" data-name="Path 77" class="cls-1" d="M5.573,2.117A1.273,1.273,0,0,0,6.42-.191C3.417-2.315-3.381-2.04-4.146-2A1.274,1.274,0,0,0-5.354-.666,1.277,1.277,0,0,0-4.02.542c.594-.029,6.755-.22,8.971,1.347a1.26,1.26,0,0,0,.622.229" transform="translate(5.356 2.034)"/>
    </g>
    <g id="Group_156" data-name="Group 156" transform="translate(81.21 104.684)">
      <path id="Path_78" data-name="Path 78" class="cls-1" d="M25.591,11.171a1.274,1.274,0,0,1-1.155.633,1.2,1.2,0,0,1-.624-.212A24.121,24.121,0,0,0,16.6,8.521c-2.439-.567-8.405.065-15.962,1.692l-.173.037c-.7.139.01,1.947-25.055-19.568l2.885-1.416C-12.4-2.8-1.726,6.155.37,7.476,5.115,6.462,13.377,4.96,17.165,5.841A26.162,26.162,0,0,1,25.209,9.28a1.418,1.418,0,0,1,.382,1.892" transform="translate(24.591 10.735)"/>
    </g>
    <g id="Group_157" data-name="Group 157" transform="translate(89.512 117.374)">
      <path id="Path_79" data-name="Path 79" class="cls-1" d="M2.487,2A6.955,6.955,0,0,0,7.494.075,1.179,1.179,0,0,0,7.47-1.592a1.178,1.178,0,0,0-1.663.02,4.618,4.618,0,0,1-3.2,1.22,12.48,12.48,0,0,1-3.4-.567,1.184,1.184,0,0,0-1.522.675,1.176,1.176,0,0,0,.665,1.522A14.228,14.228,0,0,0,2.487,2" transform="translate(2.389 1.925)"/>
    </g>
    <g id="Group_158" data-name="Group 158" transform="translate(109.287 122.489)">
      <path id="Path_80" data-name="Path 80" class="cls-1" d="M5.161,1.96A1.18,1.18,0,0,0,5.947-.178C3.164-2.143-3.132-1.888-3.84-1.856A1.181,1.181,0,0,0-4.958-.617,1.182,1.182,0,0,0-3.722.5C-3.173.475,2.533.3,4.584,1.748a1.175,1.175,0,0,0,.578.212" transform="translate(4.96 1.884)"/>
    </g>
    <g id="Group_159" data-name="Group 159" transform="translate(85.943 49.997)">
      <path id="Path_81" data-name="Path 81" class="cls-1" d="M18.622,10.768S19.1,1.919,15.084-2.5A38.067,38.067,0,0,0,6.84-9.341s2.01,3.62,2.01,4.424S4.226-8.537,1.008-9.341a44.691,44.691,0,0,0-7.238-1.006s3.216,3.218,3.216,4.022-3.418.2-6.032,1.608a19.325,19.325,0,0,1-6.636,1.81,3.571,3.571,0,0,1-2.212-.4s2.816,5.63,4.626,7.038S-7.8,7.35-1.566,6.745s7.6.2,8.2,1.408a35.1,35.1,0,0,1,1.449,4.222,4.652,4.652,0,0,1,2.773.8c1.724,1.035,1.649,1.771,1.649,1.771S3.018,13.5,1.41,21.142.808,31.88,3.22,34.294A12,12,0,0,0,8.85,37.31l1.608-2.816.6,1.61s5.228-5.187,5.43-9.813S15.284,18.006,14.48,17.2s-2.055-1.984-.282-1.69a19.627,19.627,0,0,1,3.3.724c.918.459-.241-2.01-.563-2.653-.847-1.7-4.583-2.737-4.583-2.737Z" transform="translate(17.895 10.347)"/>
    </g>
    <g id="Group_160" data-name="Group 160" transform="translate(7.14 0.001)">
      <path id="Path_82" data-name="Path 82" class="cls-1" d="M16.482,31.866C21.012,11.612,5.646-20.1-15.838-19.826,7.768-23.175,27.032-12.474,28.1,10.535,32.383-3.911,24.357-14.612,2.014-30.621,27.032-29.595,46.283-7,42.682,14.447c-2.514,14.968-26.2,17.419-26.2,17.419" transform="translate(15.838 30.621)"/>
    </g>
    <g id="Group_161" data-name="Group 161" transform="translate(0.001 25.105)">
      <path id="Path_83" data-name="Path 83" class="cls-1" d="M21.4,18.464c1.661-2.045-25.494-32.687-36.05-6.693C-13.505-3.687,2.087-11.309,13.964-2.72,2.559-12.792-14.515-12.688-20.568,1.512-18.589-20.533,6.887-24.194,19.9-6.642c0,0,36.085,29.467,1.5,25.106" transform="translate(20.568 17.743)"/>
    </g>
  </g>
</svg>
